<svg width="66" height="66" viewBox="0 0 66 66" fill="none" xmlns="http://www.w3.org/2000/svg">
<path d="M57.1983 5.60087C57.1983 5.60087 35.5283 6.92087 33.7483 6.79087C29.5783 6.47087 22.7783 4.87087 22.7783 4.87087C18.4383 4.40087 16.9083 4.46087 13.2383 5.10087C9.56826 5.74087 8.40827 7.49087 7.18827 8.26087C5.96827 9.03087 4.97828 9.94087 2.87828 11.9909C2.09828 12.7609 0.478281 15.7909 2.25828 16.0109C2.25828 16.0109 0.848283 18.3909 1.69828 19.5109C2.27828 20.2709 3.58827 20.2009 3.58827 20.2009C3.58827 20.2009 2.25828 21.7409 2.75828 23.0509C3.59828 25.2509 6.76826 23.4109 6.76826 23.4109C6.76826 23.4109 9.92828 19.3709 12.0383 19.0209C14.1483 18.6809 20.6383 19.3809 20.7483 20.4909C20.8583 21.6009 20.5383 21.5509 20.5383 21.5509L21.6883 26.5109C21.6883 26.5109 23.1283 26.3509 24.8683 25.7209C26.3283 25.2009 31.5583 19.5809 34.4483 19.4609C37.3383 19.3409 57.1883 21.0209 57.1883 21.0209V5.60087H57.1983Z" fill="#FCCC77"/>
<path opacity="0.4" d="M16.4883 18.3405C16.4883 18.3405 20.7183 18.2305 22.7183 18.3405C24.7183 18.4505 26.3583 19.4005 28.4683 19.0205C30.5783 18.6405 38.7383 16.5605 41.8483 16.0105C44.9583 15.4505 55.9683 14.5605 55.9683 14.5605V19.2905C55.9683 19.2905 37.2883 19.3505 34.4483 19.4605C31.6083 19.5705 28.4983 21.0205 27.3883 22.0205C26.2783 23.0205 21.0383 23.7105 21.0383 23.7105C21.0383 23.7105 21.7183 23.5805 21.9383 21.6805C22.1583 19.7905 21.6083 19.3705 21.0483 19.1305C20.4983 18.8905 16.4883 18.3405 16.4883 18.3405Z" fill="#F7931E"/>
<path d="M63.22 18.2299C59.36 11.7099 50.13 11.7299 44.62 20.9099C44.62 20.9099 42.86 18.3399 39.68 15.9999C32.02 10.3599 17.59 19.1899 26.88 33.3299C30.02 38.0999 44.61 48.2599 44.61 48.2599C44.61 48.2599 58.23 38.4899 61.85 32.2299C65.49 25.9499 65.33 21.7899 63.22 18.2299Z" fill="#EA1620"/>
<path d="M61.8565 32.2106C65.4765 25.9506 65.3166 21.7906 63.2166 18.2306C59.3866 11.7506 50.2466 11.7406 44.7266 20.7406V48.1706C45.8366 47.3706 58.3965 38.2006 61.8565 32.2106Z" fill="#D30519"/>
<path d="M33.1289 17.0905C32.1389 17.2405 31.2189 17.7005 30.4689 18.4005C29.0089 19.7705 28.2489 21.8105 28.4389 23.8805C28.5289 24.9305 28.7989 25.9605 29.2389 26.9105L30.8289 30.3605L30.5989 28.0505C30.4089 26.1305 30.4689 24.1905 30.7789 22.2905C30.9489 21.2405 31.4689 20.2805 32.2389 19.6005C33.0189 18.9205 33.9589 18.5005 34.9589 18.3805L36.3989 18.2205L35.7889 17.7605C35.0189 17.1805 34.0689 16.9405 33.1289 17.0905Z" fill="#F2F2F2"/>
<path d="M58.3472 47.0613C58.3472 47.0613 59.8272 44.7213 58.9972 43.5713C58.4372 42.7913 57.1272 42.8313 57.1272 42.8313C57.1272 42.8313 58.4972 41.3313 58.0372 40.0013C57.2672 37.7813 54.5272 40.1313 54.5272 40.1313C54.5272 40.1313 50.7672 43.4913 48.6472 43.7713C46.5272 44.0513 39.5972 43.9413 39.5172 42.8313C39.4572 42.0613 41.3772 40.2413 43.2972 39.8013C44.0672 39.6213 46.1372 39.8013 46.8572 39.8013C47.5772 39.8013 49.5872 39.7313 50.2872 39.2613C50.9772 38.7913 51.3172 37.8613 51.3172 37.1413C51.3172 36.4213 50.6272 35.6413 50.6272 35.6413L44.1172 35.1113C44.1172 35.1113 37.4572 35.9613 35.6972 36.5313C34.2272 37.0113 28.1072 41.8313 25.2172 41.8713C22.3272 41.9113 9.7572 40.3713 9.7572 40.3713L9.36719 56.4413C9.36719 56.4413 24.8272 55.2113 26.5972 55.4013C30.7572 55.8313 37.5072 57.6313 37.5072 57.6313C41.8272 58.2213 43.3572 58.2113 47.0472 57.6713C50.7372 57.1313 51.9472 55.4213 53.1872 54.6813C54.4272 53.9413 55.4472 53.0613 57.6072 51.0713C58.4172 50.3213 60.1172 47.3313 58.3472 47.0613Z" fill="#FCCC77"/>
<path opacity="0.4" d="M14.9375 52.7013L26.0275 52.0312L31.6175 54.5913L37.5175 57.6113C37.5175 57.6113 28.7175 55.3613 26.6075 55.3813C24.4975 55.4013 14.9375 56.0013 14.9375 56.0013V52.7013V52.7013Z" fill="#F7931E"/>
<path d="M20.54 21.5416C20.54 21.5416 20.59 21.5516 20.64 21.4916C20.59 21.0616 20.58 20.6316 20.56 20.2016C19.51 19.2616 13.96 18.7016 12.03 19.0116C9.92003 19.3516 6.76004 23.4016 6.76004 23.4016C6.76004 23.4016 6.48003 23.5516 6.09003 23.7216C5.04003 27.6116 3.41003 33.0716 2.88003 34.5816C1.36003 38.8416 3.24003 44.3516 3.69003 46.5516C3.98003 47.9716 5.33002 50.5916 5.33002 50.5916L7.03003 54.5716C7.03003 54.5716 8.32004 57.2016 9.54004 56.7616C10.76 56.3216 10.91 56.5916 11.69 57.7016C12.47 58.8116 14.58 57.3116 14.58 57.3116L15.25 57.7016H16.36C16.36 57.7016 17.62 57.5916 18.03 56.2516C18.53 54.6416 16.36 49.5216 16.36 49.5216L16.92 42.7416L18.53 37.9616L18.95 41.3916L23.71 41.8016L24.15 36.9616L21.7 26.5016H21.69L20.54 21.5416Z" fill="#FCC370"/>
<path opacity="0.2" d="M10.5981 7.99023L3.03815 14.0902L2.57812 15.3302L10.5981 9.66023V7.99023Z" fill="#F7931E"/>
<path opacity="0.2" d="M3.80984 19.1312L3.58984 20.1912L5.80984 17.3412L11.3698 14.0812C11.3698 14.0812 10.1498 13.7812 10.5898 13.2212C11.0298 12.6612 5.24985 16.7012 5.24985 16.7012L3.80984 19.1312Z" fill="#F7931E"/>
<path opacity="0.3" d="M17.7383 19.3008V21.0108L20.9383 25.2508L24.1683 36.9708L20.5483 21.5508L20.7583 20.4908C20.7583 20.4908 20.3683 20.0508 19.0483 19.6708C17.7383 19.3008 17.7383 19.3008 17.7383 19.3008Z" fill="#F7931E"/>
<path opacity="0.3" d="M18.9672 41.3899L20.3772 41.5799V36.5799C20.3772 36.5799 20.4172 31.3499 19.6672 31.1299C18.9272 30.9099 17.7272 34.1299 17.7272 34.1299C17.7272 34.1299 16.4772 37.3399 16.4772 39.1299C16.4772 40.9099 16.3672 49.5299 16.3672 49.5299L16.9272 42.7499L18.5372 37.9699L18.9672 41.3899Z" fill="#F7931E"/>
<path opacity="0.3" d="M3.69922 36.3916L4.29919 37.9516L5.38922 36.5816L7.77921 23.9316L3.69922 36.3916Z" fill="#F7931E"/>
<path opacity="0.3" d="M6.81641 36.9712L7.59641 38.1512L7.9964 36.9712L9.92639 23.7012L6.81641 36.9712Z" fill="#F7931E"/>
<path opacity="0.3" d="M10.1484 36.9699L11.3784 38.1499L11.8584 36.9699L13.2684 24.1699L10.1484 36.9699Z" fill="#F7931E"/>
<path opacity="0.3" d="M12.119 43.9502L12.859 49.7302L14.6391 56.5502C14.6391 56.5502 13.6891 55.6502 13.5691 55.2502C11.8991 50.0202 11.3091 44.2402 11.3091 44.2402L10.7891 40.1602C10.7891 40.1602 11.3791 40.6602 11.5291 40.8602C12.0291 41.5602 12.119 43.9502 12.119 43.9502Z" fill="#F7931E"/>
<path opacity="0.3" d="M5.99822 40.3805C6.89822 42.0005 7.84823 47.9805 7.84823 47.9805L10.9682 56.7705L8.59823 53.0605C8.59823 53.0605 7.72821 51.0705 7.07821 47.8005C6.37821 44.2805 5.08824 40.0705 5.38824 40.0205C5.99824 39.8905 5.80822 40.0305 5.99822 40.3805Z" fill="#F7931E"/>
<path opacity="0.2" d="M57.1277 42.8418L52.6377 47.0818L47.9677 48.9218L43.8477 49.5318V50.2618L48.7376 49.5318L53.9677 47.1618L57.1277 42.8418Z" fill="#F7931E"/>
<path opacity="0.2" d="M58.3469 47.0605L54.3069 52.0305L49.1869 54.0405L44.2969 54.8305V55.6305L49.5169 54.8305L54.7469 52.7005L58.3469 47.0605Z" fill="#F7931E"/>
<path opacity="0.2" d="M30.168 48.7012H41.288C41.288 48.7012 39.958 49.4812 40.508 50.2612C41.068 51.0412 41.068 51.0412 41.068 51.0412L30.168 48.7012Z" fill="#F7931E"/>
<path opacity="0.2" d="M29.3867 51.0312L41.2867 53.9212C41.2867 53.9212 40.1767 54.1613 40.8467 54.8213C41.5167 55.4813 41.8467 55.6213 41.8467 55.6213L29.3867 51.0312Z" fill="#F7931E"/>
<path opacity="0.4" d="M46.707 35.3117C46.707 35.3117 46.957 35.2417 47.037 36.1717C47.117 37.1017 46.877 37.5017 46.877 37.5017C46.877 37.5017 48.597 37.7217 49.377 37.5017C50.157 37.2817 50.387 36.9317 50.497 36.4517C50.607 35.9817 50.6371 35.6217 50.6371 35.6217L46.707 35.3117Z" fill="#F7931E"/>
</svg>
