<svg width="66" height="66" viewBox="0 0 66 66" fill="none" xmlns="http://www.w3.org/2000/svg">
<path d="M62.7608 39.8013C61.9508 38.7513 60.6208 38.3513 60.6208 38.3513L40.4608 34.0513L41.2608 33.0013C41.2608 33.0013 56.4708 36.6213 57.7408 36.6813C59.0108 36.7413 60.3708 36.5113 60.6108 34.6413C60.8508 32.7813 58.6008 32.7413 56.2808 31.8813C53.9608 31.0213 51.3308 29.5813 47.4108 29.2113C43.4908 28.8413 38.8608 27.6013 38.8608 27.6013L30.3708 24.7213C30.3708 24.7213 32.5008 22.4613 33.7808 21.9613C35.0608 21.4613 38.9108 21.0013 40.2608 20.2813C41.6108 19.5613 41.9608 18.3713 42.7108 16.9813C43.4508 15.5913 42.0508 14.3613 42.0508 14.3613C42.0508 14.3613 39.9208 15.0113 36.9108 15.8813C33.9108 16.7513 30.1808 16.2713 26.1408 16.8313C22.1008 17.3913 18.4608 19.8413 18.4608 19.8413L10.7408 25.1013L3.05078 22.7813V43.4913C5.30078 43.5213 7.70078 43.2213 12.1908 44.9013C16.6908 46.5813 23.5308 48.4813 25.6508 48.9613C27.7708 49.4413 37.1608 49.8513 37.1608 49.8513C37.1608 49.8513 50.2408 52.5013 52.1308 52.1013C54.0208 51.7013 53.8508 50.6813 53.3108 49.2613C52.7708 47.8413 51.7808 48.4413 51.7808 48.4413C51.7808 48.4413 38.2508 45.1713 39.0608 44.6113C39.8708 44.0513 57.2508 48.4813 58.4808 48.6913C59.7108 48.9013 61.4508 48.4613 62.0708 47.6713C62.6808 46.8913 62.0708 45.8913 61.2508 44.8413C60.4408 43.7913 39.4608 40.0513 39.8308 39.3513C40.2008 38.6613 61.4608 43.6113 62.8208 43.3713C64.1808 43.1313 63.5708 40.8513 62.7608 39.8013Z" fill="#FCC370"/>
<path opacity="0.4" d="M14.25 35.7416L18.65 34.8616C20.35 34.5216 21.89 33.6316 23.04 32.3416L27.01 27.8516H34.67L43.28 30.3216C44.9 33.3216 44.41 37.0116 42.06 39.4816L41.18 40.4016C40.35 41.2716 39.37 41.9816 38.28 42.4916C35.4 43.8416 32.19 44.3416 29.03 43.9116C26.96 43.6316 25.16 42.3616 24.21 40.5016L23.39 38.8916C22.94 38.0016 22.26 37.2516 21.42 36.7116C20.43 36.0716 19.28 35.7316 18.11 35.7316H14.25V35.7416Z" fill="#F7931E"/>
<path opacity="0.2" d="M26.8317 35.659L28.7417 33.759L29.7617 33.219L29.8517 33.119L34.1817 29.709L29.0817 32.429L27.1717 34.329C26.7117 34.779 26.0517 34.949 25.4317 34.769C25.0017 34.639 24.6417 34.349 24.4117 33.979L24.0117 34.359C23.8917 34.479 23.8317 34.649 23.8717 34.809C24.0117 35.429 24.4817 35.929 25.0917 36.109C25.7117 36.289 26.3717 36.119 26.8317 35.659Z" fill="#E54920"/>
<path opacity="0.2" d="M24.6221 31.3998C25.1121 31.5698 25.6621 31.4998 26.0921 31.2198L26.5921 30.8898L28.0721 29.4998L32.7521 26.5098L28.9121 28.2498L26.4321 29.8798C25.9921 30.1698 25.4521 30.2298 24.9621 30.0598C24.6021 29.9398 24.3421 29.6598 24.2321 29.3298C24.0621 29.5198 23.9321 29.7498 23.8721 30.0098C23.7221 30.5998 24.0521 31.1998 24.6221 31.3998Z" fill="#E54920"/>
<path opacity="0.2" d="M35.2433 34.8189L37.1533 32.3789L31.8033 36.1289C31.8033 36.1289 28.8533 40.1689 27.2733 39.9689C26.4133 39.8589 25.9533 39.3989 25.7033 38.9989L25.1133 39.7089C25.1133 39.7089 25.3633 41.1089 26.9433 41.3089C28.5233 41.5089 31.4733 37.4689 31.4733 37.4689L35.2433 34.8189Z" fill="#E54920"/>
<path opacity="0.2" d="M44.9633 43.0605C44.6633 44.0105 43.3433 44.0405 42.8033 43.0905C42.2633 42.1405 41.8633 41.1405 42.1533 39.3605C42.4433 37.5805 42.9333 34.2305 42.9333 34.2305L37.3933 37.9905L35.5533 40.8305C35.1833 41.3905 34.6733 41.8505 34.0633 42.1405L33.6133 42.3605C33.0433 42.6405 32.3733 42.6405 31.7933 42.3805C31.5733 42.2805 31.4133 42.1005 31.3233 41.8905L31.0233 42.4805C30.7933 42.9405 30.9833 43.5005 31.4533 43.7105C32.0333 43.9705 32.7033 43.9705 33.2733 43.6905L33.7233 43.4705C34.3333 43.1805 34.8433 42.7305 35.2133 42.1605L37.0533 39.3205L42.5933 35.5605C42.5933 35.5605 42.1033 38.9205 41.8133 40.6905C41.5233 42.4705 41.9233 43.4705 42.4633 44.4205C43.0033 45.3705 44.3233 45.3405 44.6233 44.3905C44.7033 44.1305 44.8333 43.6005 44.9833 42.9605C44.9833 43.0005 44.9733 43.0305 44.9633 43.0605Z" fill="#E54920"/>
<path d="M56.1118 20.9906C56.1118 20.9906 49.9118 26.4706 49.4218 28.9306C48.8618 31.7606 45.8118 38.3306 45.8118 38.3306C45.8118 38.3306 44.8618 42.8806 44.5718 43.8306C44.2718 44.7806 42.9518 44.8106 42.4118 43.8606C41.8718 42.9106 41.4717 41.9106 41.7617 40.1306C42.0517 38.3506 42.5417 35.0006 42.5417 35.0006L37.0018 38.7606L35.1618 41.6006C34.7918 42.1606 34.2818 42.6206 33.6718 42.9106L33.2218 43.1306C32.6518 43.4106 31.9817 43.4106 31.4017 43.1506C30.9317 42.9406 30.7318 42.3806 30.9718 41.9206L32.8918 38.1106L36.7718 33.1606L31.4218 36.9106C31.4218 36.9106 28.4718 40.9506 26.8918 40.7506C25.3118 40.5506 25.0618 39.1506 25.0618 39.1506L29.4618 33.9106L33.7917 30.5006L28.6918 33.2206L26.7818 35.1206C26.3318 35.5706 25.6617 35.7406 25.0417 35.5606C24.4317 35.3806 23.9618 34.8806 23.8218 34.2606C23.7818 34.1006 23.8318 33.9206 23.9618 33.8106L27.6918 30.2906L32.3717 27.3006L28.5318 29.0406L26.0518 30.6706C25.6118 30.9606 25.0718 31.0206 24.5818 30.8506C24.0018 30.6506 23.6818 30.0506 23.8218 29.4606C23.9218 29.0506 24.1818 28.6906 24.5518 28.4706L33.6318 23.0106C33.6318 23.0106 40.0418 20.3806 41.7418 20.0406C43.4318 19.7006 47.3717 14.1406 47.3717 14.1406H63.6418L56.1118 20.9906Z" fill="#FFD899"/>
<path d="M53.1519 29.3808C52.5619 28.0908 50.7619 27.8308 49.4519 29.3608C49.4519 29.3608 49.1719 28.8408 48.6119 28.3308C47.2619 27.0908 44.2219 28.3008 45.6719 31.1308C46.1619 32.0908 48.7519 34.3408 48.7519 34.3408C48.7519 34.3408 51.6619 32.9308 52.5319 31.8908C53.4019 30.8508 53.4719 30.0908 53.1519 29.3808Z" fill="#EA1620"/>
<path d="M52.1314 27.0399C52.0214 27.0399 51.9014 27.0199 51.7914 26.9899L49.3714 26.2599C46.0214 25.2499 43.3514 22.8099 42.0414 19.5699C41.7914 18.9599 42.0914 18.2599 42.7014 18.0099C43.3114 17.7699 44.0114 18.0599 44.2614 18.6699C45.2914 21.2399 47.4114 23.1699 50.0614 23.9699L52.4814 24.6999C53.1114 24.8899 53.4714 25.5599 53.2814 26.1899C53.1214 26.7099 52.6414 27.0399 52.1314 27.0399Z" fill="#572D1A"/>
<path d="M49.5317 26.6699C49.2217 26.6899 49.0417 26.8699 49.0317 27.1299L48.9417 29.4899C48.9317 29.7499 49.1417 29.9799 49.4017 29.9899C49.4117 29.9899 49.4117 29.9899 49.4217 29.9899C49.6817 29.9899 49.8917 29.7899 49.9017 29.5299L49.9918 27.1699C50.0018 26.8999 49.7917 26.6799 49.5317 26.6699Z" fill="#FFDA00"/>
<path d="M52.3019 24.6506C52.2019 24.2506 52.0419 23.8606 51.8219 23.5906C51.5419 23.2506 51.2619 23.2006 51.0719 23.2206C50.6719 23.2606 50.4719 23.5906 50.4319 23.6606C50.3519 23.8006 50.3719 23.9506 50.4319 24.0806L51.1119 24.2806C51.1219 24.2706 51.1319 24.2806 51.1419 24.2706C51.1419 24.2806 51.1519 24.2906 51.1519 24.2906C51.3619 24.6506 51.5119 25.3506 51.4519 25.7706C51.4119 26.0306 51.0919 26.4506 50.8219 26.7006C50.7219 26.7906 50.6219 26.8706 50.5619 26.8806C50.2619 26.8606 49.9219 26.6406 49.8919 26.5606C49.8919 26.5006 49.8519 26.4506 49.8219 26.4006L49.3519 26.2606C49.2819 26.2406 49.2219 26.2106 49.1519 26.1906C49.0219 26.2806 48.9219 26.4006 48.9219 26.5606C48.9219 27.2806 49.8319 27.7906 50.4819 27.8306C50.5019 27.8306 50.5219 27.8306 50.5319 27.8306C50.9719 27.8306 51.4619 27.4506 51.8319 26.9906C52.1219 26.6306 52.3419 26.2206 52.3819 25.9006C52.4519 25.5606 52.4119 25.1006 52.3019 24.6506Z" fill="#F5B11C"/>
</svg>
