<svg width="66" height="66" viewBox="0 0 66 66" fill="none" xmlns="http://www.w3.org/2000/svg">
<path d="M38.7111 58.161C52.6932 54.8215 61.3206 40.7795 57.9811 26.7975C54.6416 12.8154 40.5996 4.18791 26.6176 7.52745C12.6355 10.867 4.00801 24.9089 7.34755 38.891C10.6871 52.8731 24.729 61.5005 38.7111 58.161Z" fill="#7DB23E"/>
<path d="M32.6811 4.5293C17.0711 4.5293 4.37109 17.2293 4.37109 32.8393C4.37109 48.4493 17.0711 61.1493 32.6811 61.1493C48.2911 61.1493 60.9911 48.4493 60.9911 32.8393C61.0011 17.2293 48.2911 4.5293 32.6811 4.5293ZM54.5511 46.8993C52.3711 45.4893 49.7211 44.2993 46.7011 43.4093C47.3111 40.4893 47.6711 37.3293 47.7411 33.9893H58.6511C58.4411 38.7293 56.9811 43.1393 54.5511 46.8993ZM58.6511 31.6993H47.7411C47.6711 28.3293 47.3211 25.1193 46.7011 22.1693C49.7011 21.2793 52.3311 20.0993 54.5011 18.7093C56.9611 22.4793 58.4411 26.9293 58.6511 31.6993ZM53.1411 16.7993C51.2011 18.0093 48.8311 19.0593 46.1611 19.8793C44.7911 14.7393 42.6111 10.5593 39.9211 7.85928C45.2111 9.39928 49.8111 12.5693 53.1411 16.7993ZM43.9211 20.4993C40.8211 21.2493 37.4111 21.7093 33.8311 21.7893V6.8793H33.8411C38.1411 7.6993 41.9011 13.0493 43.9211 20.4993ZM31.5311 6.8793H31.5411V21.7893C27.9611 21.7093 24.5511 21.2593 21.4511 20.4993C23.4711 13.0493 27.2311 7.6993 31.5311 6.8793ZM31.5411 24.0693V31.6993H19.9111C19.9811 28.5593 20.3211 25.5393 20.9111 22.7593C24.1511 23.5393 27.7411 23.9893 31.5411 24.0693ZM31.5411 33.9893V41.5093C27.7411 41.5893 24.1511 42.0393 20.9011 42.8093C20.3211 40.0593 19.9811 37.0793 19.9111 33.9893H31.5411ZM31.5411 43.7893V58.6993C27.2411 57.8793 23.4711 52.5293 21.4511 45.0793C24.5511 44.3293 27.9611 43.8693 31.5411 43.7893ZM33.8311 58.6993V43.7893C37.4111 43.8693 40.8211 44.3193 43.9211 45.0793C41.8911 52.5293 38.1311 57.8893 33.8311 58.6993ZM33.8311 41.5093V33.9893H45.4611C45.3911 37.0793 45.0511 40.0593 44.4711 42.8093C41.2211 42.0393 37.6311 41.5793 33.8311 41.5093ZM33.8311 31.6993V24.0693C37.6311 23.9893 41.2211 23.5393 44.4711 22.7693C45.0611 25.5493 45.4011 28.5693 45.4711 31.7093H33.8311V31.6993ZM25.4511 7.85928C22.7611 10.5593 20.5811 14.7393 19.2111 19.8793C16.5811 19.0793 14.1611 17.9893 12.2311 16.7893C15.5611 12.5693 20.1611 9.39928 25.4511 7.85928ZM6.71109 33.9893H17.6211C17.6911 37.3193 18.0511 40.4893 18.6611 43.4093C15.6411 44.3093 12.9911 45.4993 10.8111 46.8993C8.39109 43.1393 6.92109 38.7293 6.71109 33.9893ZM17.6211 31.6993H6.71109C6.92109 26.9193 8.40109 22.4793 10.8611 18.7093C13.0211 20.0793 15.7011 21.2893 18.6611 22.1693C18.0411 25.1193 17.6911 28.3293 17.6211 31.6993ZM12.1711 48.8093C14.1211 47.5793 16.5111 46.5193 19.2111 45.6893C20.6111 50.9293 22.8411 55.1693 25.6111 57.8693C20.2111 56.3393 15.5311 53.1193 12.1711 48.8093ZM39.7611 57.8693C42.5211 55.1693 44.7611 50.9293 46.1611 45.6893C48.8611 46.5193 51.2511 47.5793 53.2011 48.8093C49.8311 53.1193 45.1511 56.3393 39.7611 57.8693Z" fill="#006837"/>
<path opacity="0.3" d="M58.7097 32.8503C58.7097 18.5003 47.0297 6.82031 32.6797 6.82031V58.8703C47.0297 58.8703 58.7097 47.2003 58.7097 32.8503Z" fill="#006837"/>
<path d="M62.2712 18.8793C58.9712 13.6793 51.0912 13.6893 46.3812 21.0093C46.3812 21.0093 44.8812 18.9593 42.1612 17.0893C35.6212 12.5893 23.2912 19.6293 31.2312 30.8993C33.9112 34.7093 46.3812 42.8093 46.3812 42.8093C46.3812 42.8093 58.0112 35.0193 61.1112 30.0293C64.2112 25.0293 64.0712 21.7093 62.2712 18.8793Z" fill="#EA1620"/>
<path d="M62.2712 18.8793C58.9712 13.6793 51.0912 13.6893 46.3812 21.0093C46.3812 21.0093 44.8812 18.9593 42.1612 17.0893C35.6212 12.5893 23.2912 19.6293 31.2312 30.8993C33.9112 34.7093 46.3812 42.8093 46.3812 42.8093C46.3812 42.8093 58.0112 35.0193 61.1112 30.0293C64.2112 25.0293 64.0712 21.7093 62.2712 18.8793Z" fill="#EA1620"/>
<path d="M61.1087 30.0302C64.2087 25.0402 64.0688 21.7202 62.2688 18.8802C58.9988 13.7102 51.1887 13.7002 46.4688 20.8802V42.7502C47.4187 42.1102 58.1587 34.8002 61.1087 30.0302Z" fill="#D30519"/>
<path d="M62.4103 33.989H2.96031C2.33031 33.989 1.82031 33.479 1.82031 32.849C1.82031 32.219 2.33031 31.709 2.96031 31.709H62.4103C63.0403 31.709 63.5503 32.219 63.5503 32.849C63.5503 33.479 63.0403 33.989 62.4103 33.989Z" fill="#572D1A"/>
<path d="M40.3307 38.7102C39.5107 36.2002 37.8307 34.1102 35.6107 32.7802L40.3807 28.7202C41.3207 27.9202 41.8607 26.7602 41.8607 25.5202C41.8607 24.6902 41.4907 23.9202 40.8607 23.3902C40.2207 22.8602 39.3907 22.6602 38.5807 22.8102C36.9407 23.1302 35.5507 24.2402 34.8707 25.7602L32.2207 31.6802C32.1407 31.6702 32.0707 31.6502 31.9907 31.6502C31.7707 31.6502 31.5607 31.6902 31.3607 31.7402L28.6907 25.7602C28.0107 24.2302 26.6207 23.1302 24.9807 22.8102C24.1707 22.6502 23.3307 22.8602 22.7007 23.3902C22.0607 23.9202 21.7007 24.6902 21.7007 25.5202C21.7007 26.7502 22.2407 27.9202 23.1807 28.7202L27.9507 32.7802C25.7307 34.1202 24.0507 36.2102 23.2307 38.7102L21.3007 49.5902C21.1007 50.1902 21.4307 50.8402 22.0307 51.0302C22.1507 51.0702 22.2707 51.0902 22.3907 51.0902C22.8707 51.0902 23.3207 50.7802 23.4807 50.3002L25.4107 39.4202C26.2007 37.0002 28.0007 35.0702 30.3607 34.1202C30.5207 34.1702 30.6907 34.1702 30.8607 34.1402C31.1807 34.3202 31.5707 34.4402 32.0007 34.4402C32.4507 34.4402 32.8507 34.3102 33.1807 34.1202C33.1907 34.1202 33.2107 34.1202 33.2307 34.1102C35.5907 35.0602 37.3907 36.9902 38.1807 39.4102L39.3507 42.9802C39.5107 43.4602 39.9607 43.7702 40.4407 43.7702C40.5607 43.7702 40.6807 43.7502 40.8007 43.7102C41.4007 43.5102 41.7307 42.8702 41.5307 42.2702L40.3307 38.7102ZM24.6407 26.9802C24.2107 26.6202 23.9707 26.0902 23.9707 25.5302C23.9707 25.3402 24.0807 25.2202 24.1407 25.1702C24.1907 25.1302 24.2907 25.0602 24.4307 25.0602C24.4607 25.0602 24.4907 25.0602 24.5207 25.0702C25.4307 25.2502 26.2007 25.8702 26.5807 26.7102L27.9807 29.8302L24.6407 26.9802ZM36.9507 26.7002C37.3307 25.8502 38.1007 25.2402 39.0107 25.0602C39.0407 25.0502 39.0807 25.0502 39.1007 25.0502C39.2407 25.0502 39.3407 25.1102 39.3907 25.1602C39.4507 25.2102 39.5607 25.3302 39.5607 25.5202C39.5607 26.0802 39.3207 26.6102 38.8907 26.9702L35.5407 29.8202L36.9507 26.7002Z" fill="#572D1A"/>
<path d="M35.7912 18.6994C35.1412 18.7894 34.5312 19.0694 34.0412 19.5094C33.0812 20.3494 32.5812 21.5994 32.7012 22.8694C32.7612 23.5194 32.9412 24.1494 33.2312 24.7294L34.2712 26.8494L34.1212 25.4294C34.0012 24.2494 34.0412 23.0594 34.2412 21.8894C34.3512 21.2394 34.6912 20.6594 35.2012 20.2394C35.7112 19.8194 36.3312 19.5594 36.9912 19.4894L37.9412 19.3894L37.5412 19.1094C37.0312 18.7594 36.4112 18.6094 35.7912 18.6994Z" fill="#F2F2F2"/>
</svg>
