<svg width="66" height="66" viewBox="0 0 66 66" fill="none" xmlns="http://www.w3.org/2000/svg">
<path d="M57.8603 24.25H8.07031V60.78H57.8603V24.25Z" fill="#F7931E"/>
<path d="M54.2802 5.65039H49.1602V16.7404H54.2802V5.65039Z" fill="#F7931E"/>
<path d="M57.8614 24.25H32.9414V60.78H57.8614V24.25Z" fill="#F45221"/>
<path d="M41.0294 31.791C41.0194 31.791 41.0194 31.791 41.0094 31.791C38.6494 31.791 36.3494 33.261 34.6994 35.821L33.8394 37.151L32.8994 35.871C32.8894 35.861 31.7894 34.381 29.8594 33.061C28.9994 32.471 27.9394 32.181 26.8494 32.181C25.2494 32.181 23.5994 32.801 22.4394 33.981C20.3894 36.051 20.5294 39.101 22.8194 42.341C24.3294 44.481 30.7394 48.971 33.7694 50.971C35.8094 49.561 42.4594 44.811 44.3794 41.701C46.8694 37.691 46.2394 35.631 45.2894 34.141C44.3494 32.651 42.7894 31.791 41.0294 31.791Z" fill="#FBE833"/>
<path d="M47.1501 32.9816C45.8001 30.8416 43.5701 29.6116 41.0401 29.6016C41.0301 29.6016 41.0201 29.6016 41.0101 29.6016C38.2901 29.6016 35.6901 30.9916 33.7001 33.4716C33.1001 32.8416 32.2201 32.0316 31.1001 31.2616C28.0801 29.1816 23.5901 29.7016 20.8801 32.4416C18.0601 35.3016 18.1101 39.4716 21.0201 43.6016C23.2101 46.7216 32.7701 52.9416 33.1801 53.2116L33.7901 53.6016L34.3901 53.2016C34.7701 52.9516 43.7201 46.9216 46.2401 42.8616C48.6701 38.9616 48.9501 35.8216 47.1501 32.9816ZM41.0201 31.7916C41.0301 31.7916 41.0301 31.7916 41.0401 31.7916C42.8001 31.8016 44.3601 32.6616 45.3001 34.1516C46.0201 35.2916 46.5501 36.7716 45.6501 39.2016H34.8801V35.5916C36.5101 33.1716 38.7301 31.7916 41.0201 31.7916ZM22.4501 33.9816C23.6101 32.8016 25.2701 32.1816 26.8601 32.1816C27.9401 32.1816 29.0001 32.4716 29.8701 33.0616C31.3101 34.0516 32.2801 35.1116 32.6901 35.6016V39.1816H21.2801C20.7101 37.1816 21.0901 35.3616 22.4501 33.9816ZM22.8201 42.3516C22.5901 42.0316 22.4001 41.7116 22.2201 41.3916H32.6901V50.2516C29.4201 48.0316 24.1701 44.2616 22.8201 42.3516ZM34.8801 50.2016V41.3816H44.5701C44.5001 41.4916 44.4601 41.5916 44.3901 41.7116C42.7301 44.3816 37.5801 48.2716 34.8801 50.2016Z" fill="#EA1620"/>
<path d="M32.94 1.89062L0 24.2506H65.88L32.94 1.89062Z" fill="#D30519"/>
<path opacity="0.2" d="M32.9688 24.2502H65.8787L32.9688 1.91016V24.2502Z" fill="#572D1A"/>
</svg>
