<svg width="66" height="66" viewBox="0 0 66 66" fill="none" xmlns="http://www.w3.org/2000/svg">
<path d="M40.6295 8.7793C40.6295 8.7793 40.5095 11.5193 41.3395 12.6093C42.1695 13.6993 44.7495 14.1393 46.1995 15.7793C47.6495 17.4193 48.8695 19.4993 49.1295 21.4693C49.3995 23.4393 49.8395 28.2593 47.9695 31.2693C46.1095 34.2793 43.4595 36.2493 41.3395 37.1193C39.2195 37.9993 36.5195 38.2193 35.8595 39.5293C35.1995 40.8393 37.5795 63.2693 35.0595 63.2693C32.5395 63.2693 31.3395 62.4993 31.0095 61.0793C30.6795 59.6593 31.0095 55.3893 31.0095 55.3893L30.0195 59.5493C30.0195 59.5493 28.2695 57.9093 28.2695 56.0493C28.2695 54.1893 28.8495 49.8093 28.8495 49.8093C28.8495 49.8093 29.7695 36.7093 33.1895 25.7793C34.7395 20.8293 35.7095 12.0593 35.7095 12.0593C35.7095 12.0593 37.8395 12.2993 38.7495 11.5193C39.6495 10.7493 40.6295 8.7793 40.6295 8.7793Z" fill="#006837"/>
<path d="M35.0605 31.851C35.0605 31.851 33.8605 34.721 31.5605 35.401C29.2605 36.081 27.9705 35.401 27.9705 35.401L29.9205 33.251C29.9205 33.251 27.0705 35.161 25.0005 35.381C22.9205 35.601 22.3705 34.071 22.3705 34.071L24.8905 32.761C24.8905 32.761 21.6105 33.741 19.7505 33.161C17.8905 32.571 17.4605 31.291 17.4605 31.291L20.3005 30.661C20.3005 30.661 16.6905 30.911 15.3805 30.151C15.3605 30.141 15.3605 30.131 15.3405 30.121C13.3005 30.171 12.9205 30.041 12.9205 30.041C12.9205 30.041 12.1505 32.241 13.4705 33.001C14.7905 33.761 18.3905 33.511 18.3905 33.511L15.5505 34.141C15.5505 34.141 15.9805 35.431 17.8405 36.011C19.7005 36.601 22.9805 35.611 22.9805 35.611L20.4605 36.921C20.4605 36.921 21.0105 38.451 23.0905 38.231C25.1705 38.011 28.0105 36.101 28.0105 36.101L26.0605 38.251C26.0605 38.251 27.3505 38.931 29.6505 38.251C31.9505 37.571 33.1505 34.701 33.1505 34.701V36.921C33.1505 36.921 34.3505 36.671 35.7805 35.371C36.2505 34.941 36.6705 34.201 37.0005 33.411C37.0605 33.271 37.1005 33.121 37.1505 32.981C35.9805 33.881 35.0605 34.081 35.0605 34.081V31.851Z" fill="#572D1A"/>
<path d="M41.3414 3.32016L39.9614 2.55016C39.9614 2.55016 38.2014 1.51016 36.1214 1.89016C34.0414 2.27016 32.8414 3.42016 32.1414 4.41016C31.4414 5.40016 30.5614 8.24016 31.5514 10.2102C32.5314 12.1802 34.2514 12.4002 34.3214 14.1502C34.3914 15.9002 34.7214 18.8602 33.0814 20.7202C31.4414 22.5802 29.4714 24.6602 27.2814 25.4202C25.0914 26.1902 22.7914 26.9702 19.0714 27.1802C15.3514 27.3902 14.8014 27.1802 14.8014 27.1802C14.8014 27.1802 14.0314 29.3802 15.3514 30.1402C16.6614 30.8902 20.2714 30.6502 20.2714 30.6502L17.4314 31.2802C17.4314 31.2802 17.8614 32.5702 19.7214 33.1502C21.5814 33.7402 24.8614 32.7502 24.8614 32.7502L22.3414 34.0602C22.3414 34.0602 22.8914 35.5902 24.9714 35.3702C27.0514 35.1502 29.8914 33.2402 29.8914 33.2402L27.9414 35.3902C27.9414 35.3902 29.2314 36.0702 31.5314 35.3902C33.8314 34.7102 35.0314 31.8402 35.0314 31.8402V34.0602C35.0314 34.0602 36.2314 33.8102 37.6614 32.5102C38.1314 32.0802 38.5514 31.3402 38.8814 30.5502C39.6414 28.7602 39.9114 26.8002 39.7914 24.8502L39.6214 22.1202C39.4814 19.9902 39.1314 17.8802 38.5714 15.8202L37.6614 12.4902C37.6614 12.4902 38.8014 12.3002 39.6314 11.9702C40.9414 11.4502 42.4614 9.75016 42.7214 8.11016C42.9814 6.47016 42.4714 4.39016 42.4714 4.39016L41.3414 3.32016Z" fill="#FBE833"/>
<path d="M41.3414 3.32016L39.9614 2.55016C39.9614 2.55016 38.2014 1.51016 36.1214 1.89016C34.0414 2.27016 32.8414 3.42016 32.1414 4.41016C31.4414 5.40016 30.5614 8.24016 31.5514 10.2102C32.5314 12.1802 34.2514 12.4002 34.3214 14.1502C34.3914 15.9002 34.7214 18.8602 33.0814 20.7202C31.4414 22.5802 29.4714 24.6602 27.2814 25.4202C25.0914 26.1902 22.7914 26.9702 19.0714 27.1802C15.3514 27.3902 14.8014 27.1802 14.8014 27.1802C14.8014 27.1802 14.0314 29.3802 15.3514 30.1402C16.6614 30.8902 20.2714 30.6502 20.2714 30.6502L17.4314 31.2802C17.4314 31.2802 17.8614 32.5702 19.7214 33.1502C21.5814 33.7402 24.8614 32.7502 24.8614 32.7502L22.3414 34.0602C22.3414 34.0602 22.8914 35.5902 24.9714 35.3702C27.0514 35.1502 29.8914 33.2402 29.8914 33.2402L27.9414 35.3902C27.9414 35.3902 29.2314 36.0702 31.5314 35.3902C33.8314 34.7102 35.0314 31.8402 35.0314 31.8402V34.0602C35.0314 34.0602 36.2314 33.8102 37.6614 32.5102C38.1314 32.0802 38.5514 31.3402 38.8814 30.5502C39.6414 28.7602 39.9114 26.8002 39.7914 24.8502L39.6214 22.1202C39.4814 19.9902 39.1314 17.8802 38.5714 15.8202L37.6614 12.4902C37.6614 12.4902 38.8014 12.3002 39.6314 11.9702C40.9414 11.4502 42.4614 9.75016 42.7214 8.11016C42.9814 6.47016 42.4714 4.39016 42.4714 4.39016L41.3414 3.32016Z" fill="#7DB23E"/>
<path d="M42.3616 4.72019C43.5916 7.24019 42.4316 10.2502 39.7716 11.4402C37.1116 12.6302 33.9516 11.5502 32.7216 9.03018C31.4916 6.51018 32.6516 3.50018 35.3116 2.31018C37.9716 1.12018 41.1316 2.20019 42.3616 4.72019Z" fill="#FBE833"/>
<path d="M45.9514 3.40039L41.5114 3.70039L41.1914 5.65039L42.8314 6.56039L45.9514 3.40039Z" fill="#F45221"/>
<path d="M38.7388 5.99046C38.7388 6.55046 38.2887 7.00047 37.7287 7.00047C37.1687 7.00047 36.7188 6.55046 36.7188 5.99046C36.7188 5.43046 37.1687 4.98047 37.7287 4.98047C38.2887 4.98047 38.7388 5.43046 38.7388 5.99046Z" fill="#572D1A"/>
<path d="M38.3484 5.75039C38.3484 5.94039 38.1984 6.10039 37.9984 6.10039C37.8084 6.10039 37.6484 5.95039 37.6484 5.75039C37.6484 5.56039 37.7984 5.40039 37.9984 5.40039C38.1984 5.41039 38.3484 5.56039 38.3484 5.75039Z" fill="white"/>
<path d="M61.1617 35.1307C60.9617 34.2307 59.0617 27.3207 59.0617 27.3207L55.1617 20.7207C55.1617 20.7207 54.2617 20.7207 53.2517 21.3207C52.2417 21.9207 51.9617 22.6207 52.3617 24.9207C52.5517 26.0207 53.2917 27.7607 54.0217 29.3907C53.3317 29.7407 52.5117 30.3807 51.4617 31.3207C49.4617 33.1207 47.0617 36.3207 46.0617 37.3207C45.0617 38.3207 41.0617 41.1207 39.0617 42.3207C37.0617 43.5207 35.5617 44.8207 34.7617 47.2207C33.9617 49.6207 34.7617 53.1207 34.7617 53.1207L33.7617 64.4307H45.5717C45.5717 64.4307 44.3717 55.8207 45.2717 54.4207C46.1717 53.0207 57.5817 47.2207 58.0717 45.8107C58.5417 44.4307 61.3617 36.0307 61.1617 35.1307ZM49.2517 44.2307C48.6517 44.2307 50.4517 40.5307 51.3517 39.4307C51.9017 38.7607 53.1317 37.6307 54.1617 36.7207C52.3917 39.9207 49.6517 44.2307 49.2517 44.2307Z" fill="#FCCC77"/>
<path opacity="0.5" d="M53.8816 29.1012C53.8816 29.1012 55.3216 28.6812 55.9716 28.8312C56.6216 28.9812 57.6416 29.5112 57.9916 30.2112C58.3416 30.9112 58.9916 32.9512 56.5516 35.2812C56.2116 35.6112 53.6016 37.7112 53.6016 37.7112L54.1516 36.7312C54.1516 36.7312 58.1016 33.8312 57.5916 31.1012C57.3616 29.8712 56.1816 29.1012 55.2916 29.1312C54.5216 29.1512 54.0016 29.4012 54.0016 29.4012L53.8816 29.1012Z" fill="#F7931E"/>
<path opacity="0.5" d="M57.1905 24.1609C57.1905 24.1609 56.8205 24.2109 56.4905 24.3509C56.1605 24.4809 55.3205 24.8809 55.3205 24.8809C55.3205 24.8809 54.1905 22.7809 54.1605 22.3109C54.1205 21.8409 54.3705 21.2809 54.5905 21.0109C54.8105 20.7409 55.1605 20.7109 55.1605 20.7109L57.1905 24.1609Z" fill="#F7931E"/>
<path opacity="0.5" d="M51.9414 31.7705C51.9414 31.7705 53.6114 30.1205 54.1814 29.9005C54.7514 29.6805 55.3214 29.5005 55.6714 29.7705C56.0214 30.0405 56.3314 30.3105 56.3714 30.8305C56.4114 31.3505 56.1414 32.0205 55.9014 32.3505C55.6614 32.6905 53.9114 34.0705 53.9114 34.0705C53.9114 34.0705 53.5714 33.2005 53.0714 32.6705C52.5714 32.1405 51.9414 31.7705 51.9414 31.7705Z" fill="#F7931E"/>
<path d="M54.1628 36.7207C53.1328 37.6307 51.9128 38.7507 51.3528 39.4307C50.4528 40.5307 48.6528 44.2307 49.2528 44.2307C49.6528 44.2307 52.3928 39.9207 54.1628 36.7207Z" fill="#F7931E"/>
<path opacity="0.5" d="M45.2517 54.4407C46.0017 53.2807 53.9317 49.1107 56.9217 46.9107C56.4117 47.0907 56.6217 45.5006 56.3817 45.2306C56.1017 44.9306 55.5617 45.2307 55.0617 46.3307C54.5617 47.4307 42.1517 51.7307 40.7517 52.0307C39.3517 52.3307 39.9517 52.7307 41.6517 53.6307C43.3517 54.5307 42.6517 56.6307 42.6517 58.0307C42.6517 59.4307 41.6517 64.4306 41.6517 64.4306H45.5517C45.5517 64.4506 44.3417 55.8407 45.2517 54.4407Z" fill="#F7931E"/>
<path d="M7.84049 45.8302C8.33049 47.2302 19.7405 53.0302 20.6405 54.4402C21.5405 55.8402 20.3405 64.4502 20.3405 64.4502H32.1505L31.1505 53.1402C31.1505 53.1402 31.9505 49.6402 31.1505 47.2402C30.3505 44.8402 28.8505 43.5402 26.8505 42.3402C24.8505 41.1402 20.8505 38.3402 19.8505 37.3402C18.8505 36.3402 16.4505 33.1402 14.4505 31.3402C13.4005 30.4002 12.5805 29.7602 11.8905 29.4102C12.6205 27.7702 13.3605 26.0402 13.5505 24.9402C13.9505 22.6402 13.6605 21.9402 12.6605 21.3402C11.6505 20.7402 10.7505 20.7402 10.7505 20.7402L6.85049 27.3402C6.85049 27.3402 4.95049 34.2402 4.75049 35.1502C4.53049 36.0302 7.35049 44.4302 7.84049 45.8302ZM11.7305 36.7202C12.7605 37.6302 13.9805 38.7502 14.5405 39.4302C15.4405 40.5302 17.2405 44.2302 16.6405 44.2302C16.2405 44.2302 13.4905 39.9202 11.7305 36.7202Z" fill="#FCCC77"/>
<path opacity="0.5" d="M12.0113 29.1012C12.0113 29.1012 10.5713 28.6812 9.92135 28.8312C9.27135 28.9812 8.25135 29.5112 7.90135 30.2112C7.55135 30.9112 6.90135 32.9512 9.34135 35.2812C9.68135 35.6112 12.2913 37.7112 12.2913 37.7112L11.7413 36.7312C11.7413 36.7312 7.79135 33.8312 8.30135 31.1012C8.53135 29.8712 9.71135 29.1012 10.6013 29.1312C11.3713 29.1512 11.8913 29.4012 11.8913 29.4012L12.0113 29.1012Z" fill="#F7931E"/>
<path opacity="0.5" d="M8.70117 24.1609C8.70117 24.1609 9.07117 24.2109 9.40117 24.3509C9.73117 24.4809 10.5712 24.8809 10.5712 24.8809C10.5712 24.8809 11.7012 22.7809 11.7312 22.3109C11.7712 21.8409 11.5212 21.2809 11.3012 21.0109C11.0812 20.7409 10.7312 20.7109 10.7312 20.7109L8.70117 24.1609Z" fill="#F7931E"/>
<path opacity="0.5" d="M13.9496 31.7705C13.9496 31.7705 12.2796 30.1205 11.7096 29.9005C11.1396 29.6805 10.5696 29.5005 10.2196 29.7705C9.86959 30.0405 9.55959 30.3105 9.51959 30.8305C9.47959 31.3505 9.74959 32.0205 9.98959 32.3505C10.2296 32.6905 11.9796 34.0705 11.9796 34.0705C11.9796 34.0705 12.3196 33.2005 12.8196 32.6705C13.3096 32.1305 13.9496 31.7705 13.9496 31.7705Z" fill="#F7931E"/>
<path d="M11.7305 36.7207C12.7605 37.6307 13.9805 38.7507 14.5405 39.4307C15.4405 40.5307 17.2405 44.2307 16.6405 44.2307C16.2405 44.2307 13.4905 39.9207 11.7305 36.7207Z" fill="#F7931E"/>
<path opacity="0.5" d="M20.6407 54.4407C19.8907 53.2807 11.9607 49.1107 8.9707 46.9107C9.4807 47.0907 9.2707 45.5006 9.5107 45.2306C9.7907 44.9306 10.3307 45.2307 10.8307 46.3307C11.3307 47.4307 23.7407 51.7307 25.1407 52.0307C26.5407 52.3307 25.9407 52.7307 24.2407 53.6307C22.5407 54.5307 23.2407 56.6307 23.2407 58.0307C23.2407 59.4307 24.2407 64.4306 24.2407 64.4306H20.3407C20.3407 64.4506 21.5407 55.8407 20.6407 54.4407Z" fill="#F7931E"/>
</svg>
