<svg width="66" height="66" viewBox="0 0 66 66" fill="none" xmlns="http://www.w3.org/2000/svg">
<path d="M47.5081 41.3491L41.7781 36.4291L48.2081 28.6291H51.7781V26.4391H47.1781L33.0781 43.5591V29.6891C33.0781 27.5191 33.7082 25.3991 34.8882 23.5791L38.7181 17.6991L36.8882 16.5091L33.0781 22.3591V8.61914H28.6982V22.6291L24.9182 16.5291L23.0581 17.6791L27.0181 24.0791C28.1181 25.8491 28.6982 27.8891 28.6982 29.9791V43.1591L16.4281 24.2191L14.5881 25.4091L21.0181 35.3491L11.3281 41.4091L12.4881 43.2591L21.3281 37.7291C21.8181 37.4291 22.4581 37.5691 22.7681 38.0491L26.2181 43.3691C27.3881 45.1791 27.5381 48.3291 27.5381 50.4891L27.5281 52.9291C27.5181 57.0291 25.6382 60.8991 22.4182 63.4391L22.2581 63.5691H39.3381L39.1982 63.4591C35.9682 60.9091 34.0881 57.0291 34.0881 52.9191V48.1291C34.0881 46.8191 34.7681 44.9191 35.5981 43.9091L38.3681 40.5391C39.4181 39.2691 41.2981 39.0991 42.5581 40.1591L46.6781 43.6391H53.8081V41.3391H47.5081V41.3491Z" fill="#572D1A"/>
<path d="M36.8193 4.0296C35.6093 2.1196 32.7193 2.1296 30.9893 4.8096C30.9893 4.8096 30.4393 4.05961 29.4393 3.36961C27.0393 1.71961 22.5193 4.29961 25.4293 8.43961C26.4093 9.83961 30.9893 13.5996 30.9893 13.5996C30.9893 13.5996 35.2594 9.94961 36.3894 8.11961C37.5294 6.28961 37.4793 5.0696 36.8193 4.0296Z" fill="#EA1620"/>
<path d="M46.667 13.8597C45.457 11.9497 42.567 11.9597 40.837 14.6397C40.837 14.6397 40.287 13.8897 39.287 13.1997C36.887 11.5497 32.367 14.1297 35.277 18.2697C36.257 19.6697 40.837 23.4297 40.837 23.4297C40.837 23.4297 45.107 19.7797 46.237 17.9497C47.377 16.1197 47.327 14.8997 46.667 13.8597Z" fill="#EA1620"/>
<path d="M26.7803 13.8597C25.5703 11.9497 22.6803 11.9597 20.9503 14.6397C20.9503 14.6397 20.4002 13.8897 19.4002 13.1997C17.0002 11.5497 12.4803 14.1297 15.3903 18.2697C16.3703 19.6697 20.9503 23.4297 20.9503 23.4297C20.9503 23.4297 25.2203 19.7797 26.3503 17.9497C27.4903 16.1197 27.4403 14.8997 26.7803 13.8597Z" fill="#F45221"/>
<path d="M59.5771 23.0101C58.3671 21.1001 55.4771 21.1101 53.7471 23.7901C53.7471 23.7901 53.1972 23.0401 52.1972 22.3501C49.7972 20.7001 45.2771 23.2801 48.1871 27.4201C49.1671 28.8201 53.7471 32.5801 53.7471 32.5801C53.7471 32.5801 58.0171 28.9301 59.1471 27.1001C60.2871 25.2701 60.2371 24.0501 59.5771 23.0101Z" fill="#FBE833"/>
<path d="M61.2373 38.68C60.0273 36.77 57.1373 36.78 55.4073 39.46C55.4073 39.46 54.8573 38.71 53.8573 38.02C51.4573 36.37 46.9373 38.95 49.8473 43.09C50.8273 44.49 55.4073 48.25 55.4073 48.25C55.4073 48.25 59.6773 44.6 60.8073 42.77C61.9373 40.94 61.8973 39.72 61.2373 38.68Z" fill="#006837"/>
<path d="M43.2178 28.4691C42.0078 26.5591 39.1178 26.5691 37.3878 29.2491C37.3878 29.2491 36.8378 28.4991 35.8378 27.8091C33.4378 26.1591 28.9178 28.7391 31.8278 32.8791C32.8078 34.2791 37.3878 38.0391 37.3878 38.0391C37.3878 38.0391 41.6578 34.3891 42.7878 32.5591C43.9278 30.7291 43.8778 29.5091 43.2178 28.4691Z" fill="#7DB23E"/>
<path d="M19.2178 23.0101C18.0078 21.1001 15.1178 21.1101 13.3878 23.7901C13.3878 23.7901 12.8378 23.0401 11.8378 22.3501C9.43778 20.7001 4.91777 23.2801 7.82777 27.4201C8.80777 28.8201 13.3878 32.5801 13.3878 32.5801C13.3878 32.5801 17.6578 28.9301 18.7878 27.1001C19.9278 25.2701 19.8778 24.0501 19.2178 23.0101Z" fill="#F7931E"/>
<path d="M16.7685 38.68C15.5585 36.77 12.6685 36.78 10.9385 39.46C10.9385 39.46 10.3886 38.71 9.38856 38.02C6.98856 36.37 2.46855 38.95 5.37855 43.09C6.35855 44.49 10.9385 48.25 10.9385 48.25C10.9385 48.25 15.2085 44.6 16.3385 42.77C17.4685 40.94 17.4285 39.72 16.7685 38.68Z" fill="#006837"/>
</svg>
